<svg version="1.1" xmlns="http://www.w3.org/2000/svg" xmlns:xlink="http://www.w3.org/1999/xlink" width="2880" height="1620" viewBox="0,0,2880,1620"><defs><clipPath id="clip-1"><path d="M-480,1350v-1620h2880v1620z" fill="none" fill-rule="nonzero" stroke-width="1" stroke-linecap="butt"/></clipPath></defs><g transform="translate(480,270)"><g clip-path="url(#clip-1)" data-paper-data="{&quot;isPaintingLayer&quot;:true}" stroke="none" stroke-linejoin="miter" stroke-miterlimit="10" stroke-dasharray="" stroke-dashoffset="0" style="mix-blend-mode: normal"><path d="M-44.01652,513.05v-56h80.65957v56z" fill="#1a0e00" fill-rule="nonzero" stroke-width="0" stroke-linecap="butt"/><path d="M-960,-900h3840v2880h-3840z" fill-opacity="0" fill="#000000" fill-rule="evenodd" stroke-width="1" stroke-linecap="square"/><path d="M-78.5722,420h1665.512v122.8031h-1665.512z" fill-opacity="0" fill="#000000" fill-rule="evenodd" stroke-width="1" stroke-linecap="square"/><path d="M-40.5722,457.5143h72.61481v47.04297h-72.61481z" fill-opacity="0" fill="#000000" fill-rule="nonzero" stroke-width="1" stroke-linecap="square"/><path d="M-35.0097,467.1993v10.1875h0.0625c0.46875,-1.04167 1.25521,-1.84896 2.35938,-2.42187c1.10417,-0.57292 2.35417,-0.85937 3.75,-0.85937c2.32292,0 4.01042,0.59375 5.0625,1.78125c1.05208,1.1875 1.57813,2.89063 1.57813,5.10938v12.84375h-3.17187v-13.17187c0,-1.09375 -0.34896,-1.99479 -1.04687,-2.70312c-0.69792,-0.71875 -1.66667,-1.07812 -2.90625,-1.07812c-1.79167,0 -3.1875,0.55208 -4.1875,1.65625c-1,1.09375 -1.5,2.51563 -1.5,4.26563v11.03125h-3.17187v-26.64062zM-9.40582,474.10555c2.77083,0 4.92188,0.99479 6.45313,2.98438c1.53125,1.98958 2.29688,4.54688 2.29688,7.67188v0.39063h-14.45312v0.23438c0,1.83333 0.53125,3.3125 1.59375,4.4375c1.07292,1.11458 2.54688,1.67188 4.42188,1.67188c1.40625,0 2.52604,-0.32812 3.35938,-0.98437c0.83333,-0.65625 1.38021,-1.58854 1.64063,-2.79687h3.125c-0.42708,2.13542 -1.36458,3.76563 -2.8125,4.89063c-1.4375,1.125 -3.24479,1.6875 -5.42187,1.6875c-2.03125,0 -3.75,-0.45833 -5.15625,-1.375c-1.39583,-0.91667 -2.43229,-2.19271 -3.10937,-3.82812c-0.66667,-1.63542 -1,-3.30729 -1,-5.01562c0,-2.84375 0.85417,-5.21354 2.5625,-7.10937c1.71875,-1.90625 3.88542,-2.85937 6.5,-2.85937zM-15.10894,482.33993h11.07813c-0.09375,-1.57292 -0.66146,-2.875 -1.70312,-3.90625c-1.04167,-1.03125 -2.33854,-1.54687 -3.89062,-1.54687c-1.45833,0 -2.70312,0.49479 -3.73437,1.48438c-1.03125,0.97917 -1.61458,2.30208 -1.75,3.96875zM12.23725,474.08993c0.07292,0 0.13542,0 0.1875,0c0.0625,0 0.14583,0.00521 0.25,0.01563v3.34375c-2.38542,0 -4.14583,0.63542 -5.28125,1.90625c-1.13542,1.26042 -1.70312,3.20833 -1.70312,5.84375v8.64063h-3.17187v-19.29687h2.98438v4.0625h0.07813c0.73958,-1.53125 1.65104,-2.66667 2.73438,-3.40625c1.09375,-0.73958 2.40104,-1.10937 3.92188,-1.10937zM22.39954,474.10555c2.77083,0 4.92188,0.99479 6.45313,2.98438c1.53125,1.98958 2.29688,4.54688 2.29688,7.67188v0.39063h-14.45312v0.23438c0,1.83333 0.53125,3.3125 1.59375,4.4375c1.07292,1.11458 2.54688,1.67188 4.42188,1.67188c1.40625,0 2.52604,-0.32812 3.35938,-0.98437c0.83333,-0.65625 1.38021,-1.58854 1.64063,-2.79687h3.125c-0.42708,2.13542 -1.36458,3.76563 -2.8125,4.89063c-1.4375,1.125 -3.24479,1.6875 -5.42187,1.6875c-2.03125,0 -3.75,-0.45833 -5.15625,-1.375c-1.39583,-0.91667 -2.43229,-2.19271 -3.10937,-3.82812c-0.66667,-1.63542 -1,-3.30729 -1,-5.01562c0,-2.84375 0.85417,-5.21354 2.5625,-7.10937c1.71875,-1.90625 3.88542,-2.85937 6.5,-2.85937zM16.69642,482.33993h11.07813c-0.09375,-1.57292 -0.66146,-2.875 -1.70312,-3.90625c-1.04167,-1.03125 -2.33854,-1.54687 -3.89062,-1.54687c-1.45833,0 -2.70312,0.49479 -3.73437,1.48438c-1.03125,0.97917 -1.61458,2.30208 -1.75,3.96875z" fill="#ff9900" fill-rule="nonzero" stroke-width="1" stroke-linecap="square"/><path d="M32.0426,504.55727v0v-47.04297v0z" fill-opacity="0" fill="#010000" fill-rule="nonzero" stroke-width="1" stroke-linecap="square"/><path d="M-40.5722,496.2667h72.61481v3.35999h-72.61481z" fill="#ff9900" fill-rule="nonzero" stroke-width="1" stroke-linecap="square"/></g></g></svg>